<?xml version="1.0" standalone="no"?>
<!DOCTYPE svg PUBLIC "-//W3C//DTD SVG 20010904//EN"
 "http://www.w3.org/TR/2001/REC-SVG-20010904/DTD/svg10.dtd">
<svg version="1.0" xmlns="http://www.w3.org/2000/svg"
 width="1133.000000pt" height="637.000000pt" viewBox="0 0 1133.000000 637.000000"
 preserveAspectRatio="xMidYMid meet">

<g transform="translate(0.000000,637.000000) scale(0.100000,-0.100000)"
fill="#000000" stroke="none">
<path d="M892 6355 c-236 -43 -412 -134 -578 -299 -145 -146 -224 -284 -282
-495 l-27 -96 -3 -1112 -3 -1113 2806 0 2805 0 0 1565 0 1565 -2322 -1 c-1875
-1 -2337 -3 -2396 -14z"/>
<path d="M5720 4805 l0 -1565 2805 0 2805 0 0 1073 c0 1174 0 1164 -60 1341
-72 215 -224 411 -417 539 -124 82 -285 143 -440 166 -49 8 -796 11 -2382 11
l-2311 0 0 -1565z"/>
<path d="M0 2058 c0 -907 2 -1087 15 -1166 73 -447 421 -798 870 -876 80 -14
350 -16 2408 -16 l2317 0 0 1565 0 1565 -2805 0 -2805 0 0 -1072z"/>
<path d="M5720 1565 l0 -1565 2318 0 c2531 0 2395 -3 2572 57 305 103 558 356
663 664 57 164 57 169 57 1337 l0 1072 -2805 0 -2805 0 0 -1565z"/>
</g>
</svg>
