<?xml version="1.0" standalone="no"?>
<!DOCTYPE svg PUBLIC "-//W3C//DTD SVG 20010904//EN"
 "http://www.w3.org/TR/2001/REC-SVG-20010904/DTD/svg10.dtd">
<svg version="1.0" xmlns="http://www.w3.org/2000/svg"
 width="1133.000000pt" height="637.000000pt" viewBox="0 0 1133.000000 637.000000"
 preserveAspectRatio="xMidYMid meet">

<g transform="translate(0.000000,637.000000) scale(0.100000,-0.100000)"
fill="#000000" stroke="none">
<path d="M892 6355 c-236 -43 -412 -134 -578 -299 -145 -146 -224 -283 -283
-495 l-26 -96 -3 -1672 -2 -1673 3775 0 3775 0 0 2125 0 2125 -3292 -1 c-2677
-1 -3307 -3 -3366 -14z"/>
<path d="M7670 5310 l0 -1060 1830 0 1830 0 0 568 c0 623 -3 670 -60 836 -72
215 -224 411 -417 539 -124 82 -285 143 -440 166 -48 7 -512 11 -1407 11
l-1336 0 0 -1060z"/>
<path d="M7670 3125 l0 -1005 1830 0 1830 0 0 1005 0 1005 -1830 0 -1830 0 0
-1005z"/>
<path d="M0 1498 c0 -409 3 -532 15 -606 73 -447 421 -798 870 -876 79 -14
265 -16 1493 -16 l1402 0 0 1005 0 1005 -1890 0 -1890 0 0 -512z"/>
<path d="M3890 1005 l0 -1005 1830 0 1830 0 0 1005 0 1005 -1830 0 -1830 0 0
-1005z"/>
<path d="M7670 1005 l0 -1005 1343 0 c1462 0 1426 -1 1597 57 305 103 558 356
663 664 52 150 57 219 57 777 l0 512 -1830 0 -1830 0 0 -1005z"/>
</g>
</svg>
