<?xml version="1.0" standalone="no"?>
<!DOCTYPE svg PUBLIC "-//W3C//DTD SVG 20010904//EN"
 "http://www.w3.org/TR/2001/REC-SVG-20010904/DTD/svg10.dtd">
<svg version="1.0" xmlns="http://www.w3.org/2000/svg"
 width="1133.000000pt" height="637.000000pt" viewBox="0 0 1133.000000 637.000000"
 preserveAspectRatio="xMidYMid meet">

<g transform="translate(0.000000,637.000000) scale(0.100000,-0.100000)"
fill="#000000" stroke="none">
<path d="M892 6355 c-236 -43 -412 -134 -578 -299 -145 -146 -224 -283 -283
-495 l-26 -96 -3 -2235 c-2 -1960 -1 -2247 13 -2332 70 -451 418 -804 870
-882 81 -14 570 -16 4780 -16 5140 0 4766 -4 4945 57 369 126 642 449 705 834
22 139 23 4446 0 4584 -38 234 -146 438 -318 601 -161 153 -361 250 -584 283
-50 8 -1484 11 -4760 10 -3831 -1 -4701 -3 -4761 -14z"/>
</g>
</svg>
