<?xml version="1.0" standalone="no"?>
<!DOCTYPE svg PUBLIC "-//W3C//DTD SVG 20010904//EN"
 "http://www.w3.org/TR/2001/REC-SVG-20010904/DTD/svg10.dtd">
<svg version="1.0" xmlns="http://www.w3.org/2000/svg"
 width="1133.000000pt" height="637.000000pt" viewBox="0 0 1133.000000 637.000000"
 preserveAspectRatio="xMidYMid meet">

<g transform="translate(0.000000,637.000000) scale(0.100000,-0.100000)"
fill="#000000" stroke="none">
<path d="M892 6355 c-236 -43 -412 -134 -578 -299 -145 -146 -224 -283 -282
-495 l-27 -96 -3 -1142 -3 -1143 2836 0 2835 0 0 1595 0 1595 -2352 -1 c-1900
-1 -2367 -3 -2426 -14z"/>
<path d="M5780 4775 l0 -1595 2775 0 2775 0 0 1103 c0 1207 1 1194 -60 1371
-72 215 -224 411 -417 539 -124 82 -285 143 -440 166 -49 8 -788 11 -2352 11
l-2281 0 0 -1595z"/>
<path d="M0 2028 c0 -880 2 -1057 15 -1136 73 -447 421 -798 870 -876 80 -14
353 -16 2438 -16 l2347 0 0 1535 0 1535 -2835 0 -2835 0 0 -1042z"/>
<path d="M5780 2330 l0 -740 1360 0 1360 0 0 740 0 740 -1360 0 -1360 0 0
-740z"/>
<path d="M8620 2330 l0 -740 1350 0 1350 0 0 -60 0 -60 -1350 0 -1350 0 0
-735 0 -735 868 0 c943 0 958 1 1122 57 307 105 560 358 664 664 56 165 56
173 56 1307 l0 1042 -1355 0 -1355 0 0 -740z"/>
<path d="M5780 735 l0 -735 1360 0 1360 0 0 735 0 735 -1360 0 -1360 0 0 -735z"/>
</g>
</svg>
