<?xml version="1.0" standalone="no"?>
<!DOCTYPE svg PUBLIC "-//W3C//DTD SVG 20010904//EN"
 "http://www.w3.org/TR/2001/REC-SVG-20010904/DTD/svg10.dtd">
<svg version="1.0" xmlns="http://www.w3.org/2000/svg"
 width="1133.000000pt" height="637.000000pt" viewBox="0 0 1133.000000 637.000000"
 preserveAspectRatio="xMidYMid meet">

<g transform="translate(0.000000,637.000000) scale(0.100000,-0.100000)"
fill="#000000" stroke="none">
<path d="M892 6355 c-236 -43 -412 -134 -578 -299 -145 -146 -224 -283 -283
-495 l-26 -96 -3 -1937 -2 -1938 4250 0 4250 0 0 2390 0 2390 -3767 -1 c-3070
-1 -3781 -3 -3841 -14z"/>
<path d="M8620 5575 l0 -795 1355 0 1355 0 0 303 c0 336 -9 422 -60 571 -72
215 -224 411 -417 539 -124 82 -285 143 -440 166 -47 7 -374 11 -932 11 l-861
0 0 -795z"/>
<path d="M8620 3920 l0 -740 1355 0 1355 0 0 740 0 740 -1355 0 -1355 0 0
-740z"/>
<path d="M8620 2330 l0 -740 1355 0 1355 0 0 740 0 740 -1355 0 -1355 0 0
-740z"/>
<path d="M0 1228 c0 -168 5 -272 15 -336 73 -447 421 -798 870 -876 77 -14
221 -16 1018 -16 l927 0 0 735 0 735 -1415 0 -1415 0 0 -242z"/>
<path d="M2950 735 l0 -735 1360 0 1360 0 0 735 0 735 -1360 0 -1360 0 0 -735z"/>
<path d="M5780 735 l0 -735 1360 0 1360 0 0 735 0 735 -1360 0 -1360 0 0 -735z"/>
<path d="M8620 735 l0 -735 868 0 c943 0 958 1 1122 57 307 105 560 358 664
664 44 130 56 240 56 507 l0 242 -1355 0 -1355 0 0 -735z"/>
</g>
</svg>
